<?xml version="1.0" encoding="UTF-8" standalone="no"?>
<!-- Generator: Adobe Illustrator 16.0.0, SVG Export Plug-In . SVG Version: 6.00 Build 0)  -->

<svg
   xmlns:dc="http://purl.org/dc/elements/1.1/"
   xmlns:cc="http://creativecommons.org/ns#"
   xmlns:rdf="http://www.w3.org/1999/02/22-rdf-syntax-ns#"
   xmlns:svg="http://www.w3.org/2000/svg"
   xmlns="http://www.w3.org/2000/svg"
   xmlns:sodipodi="http://sodipodi.sourceforge.net/DTD/sodipodi-0.dtd"
   xmlns:inkscape="http://www.inkscape.org/namespaces/inkscape"
   version="1.1"
   x="0px"
   y="0px"
   width="34px"
   height="202px"
   viewBox="0 0 34 202"
   enable-background="new 0 0 34 202"
   xml:space="preserve"
   id="svg2"
   inkscape:version="0.91 r13725"
   sodipodi:docname="icons_info_writer.svg"><metadata
     id="metadata38"><rdf:RDF><cc:Work
         rdf:about=""><dc:format>image/svg+xml</dc:format><dc:type
           rdf:resource="http://purl.org/dc/dcmitype/StillImage" /></cc:Work></rdf:RDF></metadata><defs
     id="defs36" /><sodipodi:namedview
     pagecolor="#ffffff"
     bordercolor="#666666"
     borderopacity="1"
     objecttolerance="10"
     gridtolerance="10"
     guidetolerance="10"
     inkscape:pageopacity="0"
     inkscape:pageshadow="2"
     inkscape:window-width="1920"
     inkscape:window-height="1018"
     id="namedview34"
     showgrid="false"
     inkscape:zoom="1.1683168"
     inkscape:cx="-137.0678"
     inkscape:cy="81.30885"
     inkscape:window-x="-8"
     inkscape:window-y="-8"
     inkscape:window-maximized="1"
     inkscape:current-layer="svg2" /><g
     id="Layer_1" /><g
     id="Layer_2"
     style="fill:#2a3b4d;fill-opacity:1"><rect
       x="9.813"
       y="173.938"
       fill="#B083DE"
       width="9.938"
       height="2.063"
       id="rect6"
       style="fill:#2a3b4d;fill-opacity:1" /><rect
       x="9.313"
       y="173.938"
       fill="#B083DE"
       width="1.875"
       height="16"
       id="rect8"
       style="fill:#2a3b4d;fill-opacity:1" /><rect
       x="9.313"
       y="187.875"
       fill="#B083DE"
       width="13"
       height="2.063"
       id="rect10"
       style="fill:#2a3b4d;fill-opacity:1" /><rect
       x="20.438"
       y="181.938"
       fill="#B083DE"
       width="1.875"
       height="8"
       id="rect12"
       style="fill:#2a3b4d;fill-opacity:1" /><polygon
       fill="#B083DE"
       points="17.072,185.464 14.371,186.643 14.5,183.411 22.338,173.592 24.91,175.645  "
       id="polygon14"
       style="fill:#2a3b4d;fill-opacity:1" /></g><g
     id="Layer_5" /><g
     id="Layer_8"
     style="fill:#2a3b4d;fill-opacity:1"><g
       id="g18"
       style="fill:#2a3b4d;fill-opacity:1"><path
         fill="#B083DE"
         d="M17.458,132.833c-4.51,0-8.166,3.656-8.166,8.167s3.656,8.167,8.166,8.167    c4.511,0,8.167-3.656,8.167-8.167S21.969,132.833,17.458,132.833z M17.5,146.895c-3.278,0-5.938-2.658-5.938-5.938    c0-3.279,2.659-5.938,5.938-5.938c3.279,0,5.938,2.658,5.938,5.938C23.438,144.237,20.779,146.895,17.5,146.895z"
         id="path20"
         style="fill:#2a3b4d;fill-opacity:1" /><rect
         x="13.875"
         y="139.625"
         fill="#B083DE"
         width="7.563"
         height="2.25"
         id="rect22"
         style="fill:#2a3b4d;fill-opacity:1" /></g></g><g
     id="Layer_6" /><g
     id="Layer_7"
     style="fill:#2a3b4d;fill-opacity:1"><path
       fill="#B083DE"
       d="M16.791,91.625c-4.441,0-8.041,3.601-8.041,8.042s3.6,8.042,8.041,8.042c4.442,0,8.042-3.601,8.042-8.042   S21.233,91.625,16.791,91.625z M10.75,99.879c0-3.292,2.669-5.962,5.962-5.962c1.191,0,2.298,0.353,3.229,0.955l-8.137,8.259   C11.141,102.229,10.75,101.12,10.75,99.879z M16.791,105.542c-1.014,0-1.975-0.226-2.82-0.633l7.896-8.015   c0.51,0.879,0.807,1.896,0.807,2.985C22.674,103.172,20.084,105.542,16.791,105.542z"
       id="path26"
       style="fill:#2a3b4d;fill-opacity:1" /></g><g
     id="star"
     style="fill:#2a3b4d;fill-opacity:1"><polygon
       fill="#B083DE"
       points="8.438,16.969 13.969,16.344 16.094,11.031 19.031,16.531 23.656,16.969 20.344,20.688    21.406,25.875 16.375,23.125 11.191,25.727 12.219,20.438  "
       id="polygon29"
       style="fill:#2a3b4d;fill-opacity:1" /></g><g
     id="Layer_4"
     style="fill:#2a3b4d;fill-opacity:1"><path
       fill="#B083DE"
       d="M10.938,51v13.938v1.875h1.499h0.438h10.313V51H10.938z M12.873,64.932L12.859,52.81L21,52.838l0.006,3.542   l-1.256-1.099l-3.125,4.125l-2-2.031l-1.531,1.406l3.848,3.79l4.065-5.64l0.014,7.976L12.873,64.932z"
       id="path32"
       style="fill:#2a3b4d;fill-opacity:1" /></g></svg>