<?xml version="1.0" encoding="UTF-8" standalone="no"?>
<!-- Generator: Adobe Illustrator 16.0.0, SVG Export Plug-In . SVG Version: 6.00 Build 0)  -->

<svg
   xmlns:dc="http://purl.org/dc/elements/1.1/"
   xmlns:cc="http://creativecommons.org/ns#"
   xmlns:rdf="http://www.w3.org/1999/02/22-rdf-syntax-ns#"
   xmlns:svg="http://www.w3.org/2000/svg"
   xmlns="http://www.w3.org/2000/svg"
   xmlns:xlink="http://www.w3.org/1999/xlink"
   xmlns:sodipodi="http://sodipodi.sourceforge.net/DTD/sodipodi-0.dtd"
   xmlns:inkscape="http://www.inkscape.org/namespaces/inkscape"
   version="1.1"
   id="Шар_1"
   x="0px"
   y="0px"
   width="173.474"
   height="67.000999"
   viewBox="0 0 173.474 67.001002"
   enable-background="new 0 0 198.425 141.732"
   xml:space="preserve"
   inkscape:version="0.91 r13725"
   sodipodi:docname="logo85.svg"><metadata
     id="metadata45"><rdf:RDF><cc:Work
         rdf:about=""><dc:format>image/svg+xml</dc:format><dc:type
           rdf:resource="http://purl.org/dc/dcmitype/StillImage" /><dc:title></dc:title></cc:Work></rdf:RDF></metadata><defs
     id="defs43" /><sodipodi:namedview
     pagecolor="#ffffff"
     bordercolor="#666666"
     borderopacity="1"
     objecttolerance="10"
     gridtolerance="10"
     guidetolerance="10"
     inkscape:pageopacity="0"
     inkscape:pageshadow="2"
     inkscape:window-width="1920"
     inkscape:window-height="1018"
     id="namedview41"
     showgrid="false"
     fit-margin-top="0"
     fit-margin-left="0"
     fit-margin-right="0"
     fit-margin-bottom="0"
     inkscape:zoom="1.6651145"
     inkscape:cx="83.017502"
     inkscape:cy="27.269003"
     inkscape:window-x="-8"
     inkscape:window-y="-8"
     inkscape:window-maximized="1"
     inkscape:current-layer="Шар_1" /><g
     id="g3"
     transform="translate(-16.195,-31.134)"><defs
       id="defs5"><rect
         id="SVGID_1_"
         width="198.425"
         height="141.73199"
         x="0"
         y="0" /></defs><clipPath
       id="SVGID_2_"><use
         xlink:href="#SVGID_1_"
         overflow="visible"
         id="use9"
         style="overflow:visible"
         x="0"
         y="0"
         width="100%"
         height="100%" /></clipPath><path
       clip-path="url(#SVGID_2_)"
       d="m 58.275,52.294 c 3.806,2.75 6.293,7.215 6.293,12.271 0,0.019 -0.003,0.038 -0.003,0.057 L 82.897,60.223 C 82.004,53.44 79.08,47.3 74.76,42.425"
       id="path11"
       inkscape:connector-curvature="0"
       style="clip-rule:evenodd;fill:#ffffff;fill-rule:evenodd" /><path
       clip-path="url(#SVGID_2_)"
       d="m 79.694,74.002 -1.739,5.186 -3.865,-5.153 -4.534,4.224 -1.479,-5.321 -5.894,3.245 -0.361,-2.958 c -2.733,3.913 -7.253,6.481 -12.386,6.481 -8.358,0 -15.133,-6.778 -15.133,-15.14 0,-8.362 6.775,-15.14 15.133,-15.14 3.303,0 6.35,1.071 8.839,2.869 L 75.859,43.727 C 69.724,36.052 60.286,31.135 49.695,31.135 c -18.502,0 -33.5,14.998 -33.5,33.5 0,18.501 14.998,33.5 33.5,33.5 14.721,0 27.216,-9.499 31.711,-22.698 l -1.712,-1.435 z"
       id="path13"
       inkscape:connector-curvature="0"
       style="clip-rule:evenodd;fill:#4e7795;fill-rule:evenodd" /><path
       clip-path="url(#SVGID_2_)"
       d="m 62.435,72.278 c 0.008,-0.014 0.016,-0.025 0.024,-0.038 -0.008,0.012 -0.016,0.024 -0.024,0.038"
       id="path15"
       inkscape:connector-curvature="0"
       style="clip-rule:evenodd;fill:#4e7795;fill-rule:evenodd" /><path
       clip-path="url(#SVGID_2_)"
       d="m 49.695,31.134 c -18.501,0 -33.5,14.998 -33.5,33.5 0,18.501 14.999,33.5 33.5,33.5 14.721,0 27.216,-9.498 31.711,-22.698 l -1.712,-1.434 -1.738,5.186 -3.866,-5.153 -4.534,4.224 -1.479,-5.321 -5.894,3.245 -0.361,-2.958 c -2.733,3.913 -7.253,6.481 -12.386,6.481 -8.358,0 -15.133,-6.778 -15.133,-15.14 0,-8.362 6.775,-15.14 15.133,-15.14 3.303,0 6.351,1.071 8.839,2.869 L 75.86,43.727"
       id="path17"
       inkscape:connector-curvature="0"
       style="clip-rule:evenodd;fill:#4e7795;fill-rule:evenodd" /><path
       clip-path="url(#SVGID_2_)"
       d="m 62.435,72.278 c 0.008,-0.014 0.016,-0.025 0.024,-0.038 -0.008,0.012 -0.016,0.024 -0.024,0.038"
       id="path19"
       inkscape:connector-curvature="0"
       style="clip-rule:evenodd;fill:#4e7795;fill-rule:evenodd" /><path
       clip-path="url(#SVGID_2_)"
       d="m 73.915,62.499 -10.903,8.723 c -0.078,0.159 -0.167,0.311 -0.25,0.467 l 0.239,2.864 5.785,-3.265 1.407,4.937 4.193,-4.008 3.158,4.566 1.46,-4.726 2.754,2.289 c 0.006,-0.019 0.012,-0.038 0.018,-0.057 l -7.861,-11.79 z"
       id="path21"
       inkscape:connector-curvature="0"
       style="clip-rule:evenodd;fill:#e3cb8f;fill-rule:evenodd" /><path
       clip-path="url(#SVGID_2_)"
       d="M 82.897,60.223 C 82.191,54.863 80.213,49.906 77.285,45.655 l -17.111,8.247 c 2.715,2.736 4.394,6.503 4.394,10.663 0,0.02 -0.003,0.038 -0.003,0.057 l 18.332,-4.399 z"
       id="path23"
       inkscape:connector-curvature="0"
       style="clip-rule:evenodd;fill:#e4bb2e;fill-rule:evenodd" /><polygon
       clip-path="url(#SVGID_2_)"
       points="73.915,62.499 73.908,62.503 73.917,62.501 "
       id="polygon25"
       style="clip-rule:evenodd;fill:#e4bb2e;fill-rule:evenodd" /><path
       clip-path="url(#SVGID_2_)"
       d="M 82.897,60.223 C 82.191,54.863 80.213,49.906 77.285,45.655 l -17.111,8.247 c 2.715,2.736 4.394,6.503 4.394,10.663 0,0.02 -0.003,0.038 -0.003,0.057 l 18.332,-4.399 z"
       id="path27"
       inkscape:connector-curvature="0"
       style="clip-rule:evenodd;fill:#e4bb2e;fill-rule:evenodd" /><polygon
       clip-path="url(#SVGID_2_)"
       points="73.915,62.499 73.908,62.503 73.917,62.501 "
       id="polygon29"
       style="clip-rule:evenodd;fill:#e4bb2e;fill-rule:evenodd" /><path
       clip-path="url(#SVGID_2_)"
       d="m 74.09,74.035 -4.534,4.223 -1.049,-3.775 c -3.562,6.903 -10.741,11.636 -19.045,11.636 -11.847,0 -21.45,-9.604 -21.45,-21.45 0,-11.847 9.603,-21.45 21.45,-21.45 5.818,0 11.087,2.325 14.951,6.086 l 5.133,-2.501 c -4.928,-5.56 -12.118,-9.067 -20.131,-9.067 -14.856,0 -26.899,12.043 -26.899,26.898 0,14.856 12.043,26.899 26.899,26.899 11.372,0 21.089,-7.059 25.024,-17.032 L 74.09,74.035 Z"
       id="path31"
       inkscape:connector-curvature="0"
       style="clip-rule:evenodd;fill:#6a91ae;fill-rule:evenodd" /><path
       clip-path="url(#SVGID_2_)"
       d="m 76.277,66.042 -2.362,-3.543 2.362,3.543 z"
       id="path33"
       inkscape:connector-curvature="0"
       style="clip-rule:evenodd;fill:#6a91ae;fill-rule:evenodd" /><path
       clip-path="url(#SVGID_2_)"
       d="m 79.004,72.057 -1.46,4.726 -3.158,-4.566 -4.193,4.008 L 68.786,71.288 63,74.552 62.762,71.688 c 0.083,-0.156 0.172,-0.308 0.25,-0.467 -0.344,0.701 -0.746,1.368 -1.19,2.003 l 0.361,2.958 5.894,-3.245 1.479,5.321 4.534,-4.224 3.866,5.153 1.738,-5.186 1.712,1.434 c 0.123,-0.36 0.241,-0.724 0.352,-1.09 l -2.754,-2.288 z"
       id="path35"
       inkscape:connector-curvature="0"
       style="clip-rule:evenodd;fill:#ffffff;fill-rule:evenodd" /><polygon
       clip-path="url(#SVGID_2_)"
       points="76.277,66.042 73.916,62.499 69.956,65.666 "
       id="polygon37"
       style="clip-rule:evenodd;fill:#1d2f43;fill-rule:evenodd" /><path
       clip-path="url(#SVGID_2_)"
       d="m 103.573,66.14 c 1.188,-0.451 2.074,-1.092 2.658,-1.923 0.583,-0.831 0.875,-1.808 0.875,-2.931 0,-1.761 -0.638,-3.255 -1.914,-4.483 -1.275,-1.227 -2.962,-1.841 -5.056,-1.841 -2.084,0 -3.753,0.6 -5.007,1.8 -1.255,1.2 -1.882,2.68 -1.882,4.441 0,1.167 0.294,2.169 0.883,3.006 0.589,0.836 1.495,1.48 2.717,1.931 -1.462,0.386 -2.589,1.11 -3.379,2.172 -0.791,1.062 -1.187,2.38 -1.187,3.954 0,2.114 0.726,3.878 2.177,5.292 1.45,1.415 3.359,2.122 5.727,2.122 2.367,0 4.276,-0.704 5.728,-2.113 1.452,-1.409 2.176,-3.148 2.176,-5.218 0,-1.497 -0.384,-2.785 -1.153,-3.864 -0.769,-1.079 -1.89,-1.86 -3.363,-2.345 m -7.315,-5.036 c 0,-1.012 0.371,-1.882 1.113,-2.609 0.742,-0.726 1.675,-1.089 2.798,-1.089 1.113,0 2.043,0.371 2.79,1.114 0.747,0.743 1.121,1.66 1.121,2.749 0,1.046 -0.363,1.93 -1.088,2.651 -0.727,0.721 -1.655,1.081 -2.79,1.081 -1.167,0 -2.116,-0.363 -2.847,-1.09 -0.731,-0.726 -1.097,-1.662 -1.097,-2.807 m 7.446,14.762 c -0.917,0.914 -2.078,1.37 -3.486,1.37 -0.905,0 -1.75,-0.217 -2.536,-0.652 -0.785,-0.435 -1.377,-1.048 -1.775,-1.841 -0.399,-0.792 -0.597,-1.611 -0.597,-2.46 0,-1.387 0.455,-2.543 1.366,-3.468 0.911,-0.924 2.059,-1.387 3.444,-1.387 1.418,0 2.599,0.468 3.543,1.404 0.942,0.936 1.415,2.119 1.415,3.55 0,1.409 -0.458,2.57 -1.374,3.484 m 14.854,-12.648 c -1.581,0 -3.092,0.506 -4.532,1.519 l 1.292,-6.506 9.573,0 0,-2.84 -11.929,0 -2.323,12.434 2.765,0.363 c 0.437,-0.694 1.036,-1.258 1.801,-1.693 0.763,-0.434 1.62,-0.652 2.568,-0.652 1.527,0 2.764,0.49 3.706,1.47 0.944,0.98 1.416,2.317 1.416,4.012 0,1.783 -0.491,3.215 -1.473,4.293 -0.982,1.079 -2.182,1.618 -3.6,1.618 -1.179,0 -2.185,-0.382 -3.02,-1.146 -0.834,-0.766 -1.366,-1.907 -1.595,-3.427 l -3.093,0.265 c 0.195,2.036 0.983,3.671 2.363,4.903 1.38,1.233 3.161,1.85 5.344,1.85 2.661,0 4.762,-0.979 6.3,-2.939 1.265,-1.596 1.897,-3.489 1.897,-5.68 0,-2.301 -0.72,-4.183 -2.16,-5.647 -1.438,-1.465 -3.206,-2.197 -5.3,-2.197 m 23.465,4.967 -2.223,0 -1.852,2.619 c -0.256,0.355 -0.534,0.762 -0.838,1.221 -0.192,-0.334 -0.447,-0.748 -0.765,-1.242 l -1.686,-2.598 -2.327,0 3.713,5.322 -4.013,5.76 2.255,0 2.885,-4.372 0.6,0.929 2.254,3.443 2.286,0 -4.085,-5.864 3.796,-5.218 z m 1.323,11.082 1.862,0 0,-11.083 -1.862,0 0,11.083 z m 0,-13.138 1.862,0 0,-2.16 -1.862,0 0,2.16 z m 8.674,1.805 c -1.517,0 -2.751,0.515 -3.702,1.545 -0.95,1.03 -1.427,2.477 -1.427,4.341 0,1.802 0.47,3.202 1.411,4.2 0.941,0.999 2.215,1.498 3.822,1.498 1.274,0 2.323,-0.313 3.143,-0.939 0.821,-0.627 1.383,-1.507 1.687,-2.641 l -1.923,-0.24 c -0.283,0.794 -0.666,1.371 -1.148,1.733 -0.483,0.361 -1.066,0.542 -1.748,0.542 -0.917,0 -1.682,-0.323 -2.296,-0.97 -0.614,-0.647 -0.955,-1.579 -1.024,-2.798 l 8.191,0 c 0.007,-0.222 0.01,-0.389 0.01,-0.501 0,-1.829 -0.465,-3.249 -1.396,-4.257 -0.932,-1.008 -2.131,-1.513 -3.6,-1.513 m -3.102,4.728 c 0.062,-0.967 0.384,-1.739 0.967,-2.317 0.582,-0.577 1.301,-0.866 2.156,-0.866 0.943,0 1.713,0.362 2.306,1.085 0.386,0.466 0.62,1.166 0.703,2.098 l -6.132,0 z m 11.156,5.082 1.147,-1.284 5.947,-7.033 0,-1.242 -8.978,0 0,1.523 4.479,0 c 0.606,0 1.306,-0.02 2.099,-0.062 l -6.991,8.098 0,1.523 9.722,0 0,-1.617 -5.077,0 c -0.732,0 -1.514,0.031 -2.348,0.094 m 15.748,-3.621 c 0,0.946 -0.102,1.668 -0.306,2.165 -0.203,0.498 -0.55,0.892 -1.039,1.18 -0.489,0.289 -1.014,0.433 -1.571,0.433 -0.559,0 -1.027,-0.141 -1.406,-0.422 -0.38,-0.282 -0.628,-0.67 -0.745,-1.164 -0.076,-0.341 -0.114,-1.002 -0.114,-1.983 l 0,-6.146 -1.86,0 0,6.866 c 0,0.801 0.037,1.385 0.113,1.754 0.11,0.549 0.301,1.014 0.573,1.393 0.273,0.379 0.69,0.694 1.252,0.944 0.563,0.251 1.167,0.376 1.815,0.376 1.468,0 2.63,-0.626 3.484,-1.879 l 0,1.628 1.665,0 0,-11.083 -1.861,0 0,5.938 z m 12.407,-4.691 c -0.958,-0.998 -2.191,-1.498 -3.702,-1.498 -1.357,0 -2.51,0.411 -3.453,1.232 -1.132,0.988 -1.696,2.508 -1.696,4.56 0,1.872 0.474,3.305 1.422,4.3 0.948,0.994 2.19,1.492 3.728,1.492 0.958,0 1.843,-0.227 2.652,-0.678 0.811,-0.453 1.428,-1.087 1.853,-1.905 0.424,-0.817 0.636,-1.939 0.636,-3.365 -0.001,-1.76 -0.481,-3.14 -1.44,-4.138 m -1.395,7.477 c -0.614,0.71 -1.382,1.064 -2.307,1.064 -0.931,0 -1.702,-0.354 -2.316,-1.06 -0.613,-0.706 -0.92,-1.769 -0.92,-3.188 0,-1.419 0.307,-2.48 0.92,-3.183 0.614,-0.702 1.386,-1.054 2.316,-1.054 0.917,0 1.685,0.353 2.302,1.06 0.616,0.706 0.925,1.744 0.925,3.115 0,1.455 -0.306,2.536 -0.92,3.246"
       id="path39"
       inkscape:connector-curvature="0"
       style="fill:#1d2f43" /></g></svg>