<svg xmlns="http://www.w3.org/2000/svg" width="77.83" height="154.9" viewBox="-0.009 0 77.83 154.9" enable-background="new -0.009 0 77.83 154.9"><g transform="translate(-5.409 -3)"><defs><filter id="a" width="77.83" height="56.859" x="5.4" y="51.4" filterUnits="userSpaceOnUse"><feColorMatrix values="1 0 0 0 0 0 1 0 0 0 0 0 1 0 0 0 0 0 1 0"/></filter></defs><mask id="b" width="77.83" height="56.859" x="5.4" y="51.4" maskUnits="userSpaceOnUse"><g filter="url(#a)"><path fill="#fff" d="M78.3 79.9c0 5.1-.4 9.6-.8 13.2-.5 4.7-4.3 8.3-9 8.8-5.4.5-13.7 1.1-24.2 1.1s-18.8-.5-24.2-1.1c-4.7-.4-8.4-4.1-9-8.8-.4-3.6-.8-8.1-.8-13.2s.4-9.6.8-13.2c.5-4.7 4.3-8.3 9-8.8 5.4-.5 13.7-1.1 24.2-1.1s18.8.5 24.2 1.1c4.7.4 8.4 4.1 9 8.8.4 3.5.8 8.1.8 13.2z"/></g></mask><g mask="url(#b)"><g><path fill="#3385C7" d="M10.3 56.9h68v46h-68v-46z"/><g fill="#fff"><path d="M83.23 59.06L49.16 80.2l-4.74-7.64L78.5 51.4l4.73 7.66z"/><path d="M44.22 72.6l-4.74 7.66L5.4 59.1l4.76-7.64L44.22 72.6z"/><path d="M83.22 100.6l-4.74 7.66L44.4 87.1l4.76-7.64 34.06 21.14z"/><path d="M44.23 87.06L10.16 108.2l-4.74-7.64L39.48 79.4l4.75 7.66z"/></g><path fill="#EB593B" d="M39.3 56.9v18h-29v10h29v18h10v-18h29v-10h-29v-18h-10z"/><g fill="#EB593B"><path d="M77.5 55.6l1.6 2.54-28.98 17.98-1.58-2.55L77.5 55.6z"/><path d="M40.1 73.58l-1.6 2.55-28.96-18 1.58-2.53L40.1 73.58z"/><path d="M48.5 86.15l1.6-2.55 28.96 17.98-1.58 2.55L48.5 86.15z"/><path d="M11.1 104.13l-1.6-2.55 29-17.98 1.58 2.55-28.98 17.98z"/></g><g fill="#fff"><path d="M49.3 71.9v3h29v-3h-26v-15h-3v15z"/><path d="M10.3 74.9h29v-18h-3v15h-26v3z"/><path d="M49.3 87.9v15h3v-15h26v-3h-29v3z"/><path d="M36.3 87.9v15h3v-18h-29v3h26z"/></g></g><g opacity=".3"><g fill="#010202"><path d="M77.2 57l.5.8-27.3 16.9-.5-.8L77.2 57m.3-1.4l-29 18 1.6 2.5 29-18-1.6-2.5z"/><path d="M11.4 57l27.3 16.9-.5.8-27.3-16.9.5-.8m-.3-1.4l-1.6 2.5 29 18 1.6-2.5-29-18z"/><path d="M50.4 85l27.3 16.9-.5.8-27.3-16.9.5-.8m-.3-1.4l-1.6 2.5 29 18 1.6-2.5-29-18z"/><path d="M38.2 85l.5.8-27.3 16.9-.5-.8L38.2 85m.3-1.4l-29 18 1.6 2.5 29-18-1.6-2.5z"/></g></g><g opacity=".3"><path fill="#010202" d="M48.3 54.9v21h31v8h-31v22h-8v-22h-31v-8h31v-21h8m1-1h-10v21h-31v10h31v22h10v-22h31v-10h-31v-21z"/></g></g></g><g transform="translate(-5.409 -3)"><defs><filter id="c" width="68" height="46" x="11.3" y="3" filterUnits="userSpaceOnUse"><feColorMatrix values="1 0 0 0 0 0 1 0 0 0 0 0 1 0 0 0 0 0 1 0"/></filter></defs><mask id="d" width="68" height="46" x="11.3" y="3" maskUnits="userSpaceOnUse"><g filter="url(#c)"><path fill="#fff" d="M79.3 26c0 5.1-.4 9.6-.8 13.2-.5 4.7-4.3 8.3-9 8.8-5.4.4-13.6 1-24.2 1s-18.8-.5-24.2-1.1c-4.7-.4-8.4-4.1-9-8.8-.4-3.6-.8-8.1-.8-13.2s.4-9.6.8-13.2c.5-4.7 4.3-8.3 9-8.8 5.4-.4 13.6-.9 24.2-.9s18.8.5 24.2 1c4.7.4 8.4 4.1 9 8.8.4 3.5.8 8.1.8 13.2z"/></g></mask><g mask="url(#d)"><path fill="#EB593B" d="M11.3 3h68v46h-68V3z"/><g fill="#FDC20B"><path d="M25.6 14.4l1.1 3.5h3.7c.3 0 .4.4.2.5l-3 2.2 1.1 3.5c.1.3-.2.5-.5.3l-3-2.2-3 2.2c-.2.2-.6-.1-.5-.3l1.1-3.5-3-2.2c-.2-.2-.1-.5.2-.5h3.7l1.1-3.5c.3-.2.7-.2.8 0z"/><path d="M30.8 8.9l-1.4 1.4 1.9-.3.9 1.7.3-1.9 1.9-.4-1.7-.8.3-1.9-1.4 1.4-1.7-.9.9 1.7z"/><path d="M36.7 15.1l-1.9.1 1.6 1-.5 1.9 1.5-1.2 1.6 1-.7-1.7 1.5-1.2h-1.9l-.6-1.7-.6 1.8z"/><path d="M37.7 23.5L36 22l.5 2.2-1.9 1.2 2.2.2.5 2.2.9-2.1 2.3.2-1.7-1.5.9-2.1-2 1.2z"/><path d="M31.8 30.1l-.2-1.9-.9 1.7-1.9-.4 1.3 1.4-1 1.7 1.8-.8 1.3 1.5-.2-2 1.8-.8-2-.4z"/></g></g></g><g transform="translate(-5.409 -3)"><g opacity=".2"><path fill="#57586A" d="M77.6 134.8c0 5.1-.4 9.6-.8 13.2-.5 4.7-4.3 8.3-9 8.8-5.4.5-13.7 1.1-24.2 1.1s-18.8-.5-24.2-1.1c-4.7-.4-8.4-4.1-9-8.8-.4-3.6-.8-8.1-.8-13.2s.4-9.6.8-13.2c.5-4.7 4.3-8.3 9-8.8 5.4-.5 13.7-1.1 24.2-1.1s18.8.5 24.2 1.1c4.7.4 8.4 4.1 9 8.8.5 3.5.8 8.1.8 13.2z"/></g><g fill="#57586A" opacity=".5"><path fill-opacity=".5" d="M44.6 157.8c-10.8 0-19.1-.6-24.3-1.1-5.1-.5-9.3-4.5-9.9-9.6-.5-4-.8-8.5-.8-13.3 0-4.8.3-9.3.8-13.3.6-5.1 4.7-9.2 9.9-9.6 5.3-.5 13.6-1.1 24.3-1.1 10.7 0 19.1.6 24.3 1.1 5.1.5 9.3 4.5 9.9 9.6.5 4 .8 8.5.8 13.3 0 4.8-.3 9.3-.8 13.3-.6 5.1-4.7 9.2-9.9 9.6-5.2.5-13.5 1.1-24.3 1.1z" opacity=".5" enable-background="new"/><path d="M78.6 133.8c0 5.1-.4 9.6-.8 13.2-.5 4.7-4.3 8.3-9 8.8-5.4.5-13.7 1.1-24.2 1.1s-18.8-.5-24.2-1.1c-4.7-.4-8.4-4.1-9-8.8-.4-3.6-.8-8.1-.8-13.2s.4-9.6.8-13.2c.5-4.7 4.3-8.3 9-8.8 5.4-.5 13.7-1.1 24.2-1.1s18.8.5 24.2 1.1c4.7.4 8.4 4.1 9 8.8.5 3.5.8 8.1.8 13.2z"/></g><defs><filter id="e" width="74" height="46" x="7.6" y="110.8" filterUnits="userSpaceOnUse"><feColorMatrix values="1 0 0 0 0 0 1 0 0 0 0 0 1 0 0 0 0 0 1 0"/></filter></defs><mask id="f" width="74" height="46" x="7.6" y="110.8" maskUnits="userSpaceOnUse"><g filter="url(#e)"><path fill="#fff" d="M78.6 133.8c0 5.1-.4 9.6-.8 13.2-.5 4.7-4.3 8.3-9 8.8-5.4.5-13.7 1.1-24.2 1.1s-18.8-.5-24.2-1.1c-4.7-.4-8.4-4.1-9-8.8-.4-3.6-.8-8.1-.8-13.2s.4-9.6.8-13.2c.5-4.7 4.3-8.3 9-8.8 5.4-.5 13.7-1.1 24.2-1.1s18.8.5 24.2 1.1c4.7.4 8.4 4.1 9 8.8.5 3.5.8 8.1.8 13.2z"/></g></mask><g mask="url(#f)"><path fill="#EB593B" d="M10.6 141.8h68v15h-68v-15z"/><path fill="#fff" d="M10.6 110.8h68v15h-68v-15z"/><g><g opacity=".3"><path fill="#010202" d="M80.6 127.8v14h-72v-14h72m1-1h-74v16h74v-16z"/></g></g><path fill="#4593D0" d="M10.6 125.8h68v16h-68v-16z"/></g></g></svg>